<?xml version="1.0" standalone="no"?>
<!DOCTYPE svg PUBLIC "-//W3C//DTD SVG 20010904//EN"
 "http://www.w3.org/TR/2001/REC-SVG-20010904/DTD/svg10.dtd">
<svg version="1.0" xmlns="http://www.w3.org/2000/svg"
 width="225.000000pt" height="225.000000pt" viewBox="0 0 225.000000 225.000000"
 preserveAspectRatio="xMidYMid meet">
<metadata>
Created by potrace 1.11, written by Peter Selinger 2001-2013
</metadata>
<g transform="translate(0.000000,225.000000) scale(0.100000,-0.100000)"
fill="#000000" stroke="none">
<path d="M965 2239 c-95 -14 -233 -56 -323 -99 -81 -39 -212 -119 -212 -130 0
-5 113 -148 173 -219 l28 -33 37 25 c64 42 154 84 232 109 65 20 96 23 225 23
129 0 160 -3 225 -23 79 -25 168 -67 232 -110 21 -13 40 -23 42 -21 26 28 196
243 196 248 0 11 -144 100 -221 135 -194 90 -427 125 -634 95z"/>
<path d="M300 1893 c-131 -143 -226 -318 -273 -503 -18 -71 -22 -114 -22 -260
0 -152 3 -187 24 -265 168 -640 831 -1003 1451 -795 170 57 316 147 444 275
225 225 338 518 323 839 -12 268 -114 510 -299 709 l-63 69 -103 -127 -102
-127 38 -42 c83 -90 149 -209 184 -333 31 -110 32 -295 0 -405 -21 -73 -69
-188 -79 -188 -3 0 -103 95 -223 210 l-217 210 -99 225 c-54 124 -102 225
-106 225 -5 0 -8 -156 -8 -347 l0 -348 220 -210 220 -210 -23 -18 c-44 -35
-184 -98 -262 -118 -112 -28 -289 -28 -400 1 -79 21 -220 84 -261 118 -21 17
-20 19 197 226 l219 210 0 353 c0 194 -2 353 -4 353 -2 0 -50 -103 -106 -230
l-102 -230 -220 -212 c-170 -164 -222 -208 -229 -197 -48 76 -99 271 -99 379
0 182 85 399 210 534 l41 44 -92 113 c-51 63 -97 120 -104 127 -10 11 -24 0
-75 -55z"/>
</g>
</svg>
